<?xml version="1.0" encoding="UTF-8"?>
<svg id="Laag_1" data-name="Laag 1" xmlns="http://www.w3.org/2000/svg" viewBox="0 0 1445.28 393.58">
  <defs>
    <style>
      .cls-1 {
        fill: #66e5bf;
      }

      .cls-2 {
        fill: #050542;
      }

      .cls-3 {
        fill: red;
      }
    </style>
  </defs>
  <rect class="cls-1" width="1445.28" height="393.58" rx="15" ry="15"/>
  <g>
    <g>
      <path class="cls-2" d="m243.14,284.57l-29.85-110.73-30.23,110.73c-2.35,8.4-4.22,14.42-5.61,18.08-1.39,3.65-3.8,6.93-7.24,9.83-3.44,2.9-8.02,4.35-13.73,4.35-4.62,0-8.42-.86-11.4-2.58-2.98-1.72-5.4-4.16-7.24-7.31-1.85-3.15-3.36-6.89-4.53-11.21-1.18-4.32-2.23-8.33-3.15-12.03l-30.74-124.33c-1.85-7.22-2.77-12.72-2.77-16.5,0-4.79,1.68-8.82,5.04-12.09,3.36-3.28,7.52-4.91,12.47-4.91,6.8,0,11.38,2.18,13.73,6.55,2.35,4.37,4.41,10.71,6.17,19.02l24.19,107.83,27.08-100.9c2.02-7.73,3.82-13.6,5.42-17.64,1.59-4.03,4.2-7.52,7.81-10.46,3.61-2.94,8.52-4.41,14.74-4.41s11.19,1.53,14.67,4.6c3.48,3.07,5.9,6.4,7.24,10.01,1.34,3.61,3.15,9.57,5.42,17.89l27.33,100.9,24.19-107.83c1.17-5.63,2.29-10.03,3.34-13.23,1.05-3.19,2.85-6.05,5.42-8.57,2.56-2.52,6.28-3.78,11.15-3.78s9.01,1.62,12.41,4.85c3.4,3.23,5.1,7.29,5.1,12.16,0,3.44-.93,8.94-2.77,16.5l-30.74,124.33c-2.1,8.4-3.84,14.55-5.23,18.45-1.38,3.91-3.74,7.33-7.05,10.27-3.32,2.94-8,4.41-14.05,4.41-5.71,0-10.29-1.43-13.73-4.28-3.44-2.85-5.84-6.07-7.18-9.64-1.34-3.57-3.23-9.68-5.67-18.33Z"/>
      <path class="cls-2" d="m441.54,255.34h-67.27c.08,7.81,1.66,14.7,4.72,20.66,3.07,5.96,7.14,10.46,12.22,13.48,5.08,3.02,10.69,4.53,16.82,4.53,4.11,0,7.87-.48,11.27-1.45,3.4-.96,6.7-2.48,9.89-4.54,3.19-2.06,6.13-4.26,8.82-6.61,2.69-2.35,6.17-5.54,10.46-9.57,1.76-1.51,4.28-2.27,7.56-2.27,3.53,0,6.38.97,8.57,2.9,2.18,1.93,3.28,4.66,3.28,8.19,0,3.11-1.22,6.74-3.65,10.9-2.44,4.16-6.11,8.15-11.02,11.97-4.91,3.82-11.08,6.99-18.52,9.51s-15.98,3.78-25.63,3.78c-22.09,0-39.26-6.3-51.52-18.9-12.26-12.6-18.39-29.69-18.39-51.27,0-10.16,1.51-19.59,4.54-28.28,3.02-8.69,7.43-16.14,13.23-22.36,5.79-6.21,12.93-10.98,21.42-14.3,8.48-3.32,17.89-4.98,28.22-4.98,13.44,0,24.96,2.83,34.58,8.5,9.61,5.67,16.82,13,21.6,21.98,4.79,8.99,7.18,18.14,7.18,27.46,0,8.65-2.48,14.26-7.43,16.82-4.96,2.56-11.93,3.84-20.91,3.84Zm-67.27-19.53h62.35c-.84-11.76-4.01-20.55-9.51-26.39-5.5-5.84-12.74-8.75-21.73-8.75s-15.6,2.96-21.1,8.88c-5.5,5.92-8.84,14.68-10.01,26.26Z"/>
    </g>
    <g>
      <path class="cls-2" d="m957.26,284.57l-29.85-110.73-30.23,110.73c-2.35,8.4-4.22,14.42-5.61,18.08-1.39,3.65-3.8,6.93-7.24,9.83-3.44,2.9-8.02,4.35-13.73,4.35-4.62,0-8.42-.86-11.4-2.58-2.98-1.72-5.4-4.16-7.24-7.31-1.85-3.15-3.36-6.89-4.53-11.21-1.18-4.32-2.23-8.33-3.15-12.03l-30.74-124.33c-1.85-7.22-2.77-12.72-2.77-16.5,0-4.79,1.68-8.82,5.04-12.09,3.36-3.28,7.52-4.91,12.47-4.91,6.8,0,11.38,2.18,13.73,6.55,2.35,4.37,4.41,10.71,6.17,19.02l24.19,107.83,27.08-100.9c2.02-7.73,3.82-13.6,5.42-17.64,1.59-4.03,4.2-7.52,7.81-10.46,3.61-2.94,8.52-4.41,14.74-4.41s11.19,1.53,14.67,4.6c3.48,3.07,5.9,6.4,7.24,10.01,1.34,3.61,3.15,9.57,5.42,17.89l27.33,100.9,24.19-107.83c1.17-5.63,2.29-10.03,3.34-13.23,1.05-3.19,2.85-6.05,5.42-8.57,2.56-2.52,6.28-3.78,11.15-3.78s9.01,1.62,12.41,4.85c3.4,3.23,5.1,7.29,5.1,12.16,0,3.44-.93,8.94-2.77,16.5l-30.74,124.33c-2.1,8.4-3.84,14.55-5.23,18.45-1.38,3.91-3.74,7.33-7.05,10.27-3.32,2.94-8,4.41-14.05,4.41-5.71,0-10.29-1.43-13.73-4.28-3.44-2.85-5.84-6.07-7.18-9.64-1.34-3.57-3.23-9.68-5.67-18.33Z"/>
      <path class="cls-2" d="m1155.66,255.34h-67.27c.08,7.81,1.66,14.7,4.72,20.66,3.07,5.96,7.14,10.46,12.22,13.48,5.08,3.02,10.69,4.53,16.82,4.53,4.11,0,7.87-.48,11.27-1.45,3.4-.96,6.7-2.48,9.89-4.54,3.19-2.06,6.13-4.26,8.82-6.61,2.69-2.35,6.17-5.54,10.46-9.57,1.76-1.51,4.28-2.27,7.56-2.27,3.53,0,6.38.97,8.57,2.9,2.18,1.93,3.28,4.66,3.28,8.19,0,3.11-1.22,6.74-3.65,10.9-2.44,4.16-6.11,8.15-11.02,11.97-4.91,3.82-11.08,6.99-18.52,9.51s-15.98,3.78-25.63,3.78c-22.09,0-39.26-6.3-51.52-18.9-12.26-12.6-18.39-29.69-18.39-51.27,0-10.16,1.51-19.59,4.54-28.28,3.02-8.69,7.43-16.14,13.23-22.36,5.79-6.21,12.93-10.98,21.42-14.3,8.48-3.32,17.89-4.98,28.22-4.98,13.44,0,24.96,2.83,34.58,8.5,9.61,5.67,16.82,13,21.6,21.98,4.79,8.99,7.18,18.14,7.18,27.46,0,8.65-2.48,14.26-7.43,16.82-4.96,2.56-11.93,3.84-20.91,3.84Zm-67.27-19.53h62.35c-.84-11.76-4.01-20.55-9.51-26.39-5.5-5.84-12.74-8.75-21.73-8.75s-15.6,2.96-21.1,8.88c-5.5,5.92-8.84,14.68-10.01,26.26Z"/>
      <path class="cls-2" d="m1241.32,145.5v52.53c6.47-6.72,13.06-11.86,19.78-15.43,6.72-3.57,15.03-5.35,24.94-5.35,11.42,0,21.43,2.71,30.04,8.12,8.61,5.42,15.28,13.27,20.03,23.56,4.74,10.29,7.12,22.49,7.12,36.59,0,10.41-1.32,19.97-3.97,28.66-2.65,8.69-6.49,16.23-11.53,22.61-5.04,6.38-11.15,11.32-18.33,14.8-7.18,3.48-15.1,5.23-23.75,5.23-5.29,0-10.27-.63-14.93-1.89-4.66-1.26-8.63-2.92-11.9-4.98-3.28-2.06-6.07-4.18-8.38-6.36-2.31-2.18-5.35-5.46-9.13-9.83v3.4c0,6.47-1.55,11.36-4.66,14.68-3.11,3.32-7.05,4.98-11.84,4.98s-8.75-1.66-11.65-4.98-4.35-8.21-4.35-14.68v-150.16c0-6.97,1.41-12.24,4.22-15.81,2.81-3.57,6.74-5.35,11.78-5.35,5.29,0,9.36,1.7,12.22,5.1,2.85,3.4,4.28,8.25,4.28,14.55Zm1.64,102.16c0,13.69,3.13,24.21,9.38,31.56,6.25,7.35,14.46,11.02,24.63,11.02,8.65,0,16.1-3.76,22.36-11.27,6.25-7.51,9.38-18.29,9.38-32.31,0-9.07-1.3-16.88-3.91-23.43-2.6-6.55-6.3-11.61-11.08-15.18-4.79-3.57-10.37-5.35-16.75-5.35s-12.39,1.79-17.51,5.35c-5.12,3.57-9.15,8.73-12.09,15.49-2.94,6.76-4.41,14.8-4.41,24.12Z"/>
    </g>
    <path class="cls-3" d="m783.84,131.12c0,66.5-102.93,168.77-144.16,207.06-9.44,8.77-24.05,8.72-33.43-.11-41.14-38.73-144.27-142.26-144.27-206.94,0-50.67,41.07-91.75,91.75-91.75,27.6,0,52.36,12.19,69.17,31.48,16.81-19.29,41.57-31.48,69.17-31.48,50.68,0,91.76,41.08,91.76,91.75Z"/>
  </g>
</svg>